<svg version="1" xmlns="http://www.w3.org/2000/svg" width="853.333" height="853.333" viewBox="0 0 640.000000 640.000000"><path d="M515.5 194.1c-32.4.4-60.1.9-61.5 1.2-1.4.3-6.8 1.1-12 1.7-27.4 3.3-62.7 12.2-87.8 22.1l-7.3 2.9h-48.2l-11.1-3.6c-26.5-8.6-61.5-16.2-97.1-21.1-18.2-2.5-21.4-2.6-75.3-3-62.3-.5-59.3-.8-62.8 5.9-1.3 2.4-1.5 5.1-1.2 11.7.4 8.4.6 8.8 5.3 15.6 6.5 9.4 11.8 21.1 16.7 36.3 11.6 36.9 22.2 56.1 40.3 73 12.6 11.9 28 20.3 44.1 24.4 7.9 2 11.5 2.3 31.4 2.3 25.1 0 32-1.1 48.6-7.9 30.3-12.4 55.8-42.2 67.2-78.7C310 260.3 315 253 321.3 253c2.7 0 4.2.8 6.6 3.5 4.2 4.8 5.7 7.9 9.7 20.4 9.7 29.6 26.9 54.1 47.5 68.2 8.5 5.7 23.1 12.5 32.5 15 10 2.7 37.2 3.7 52.5 1.9 47.4-5.5 78-30.3 86.3-70 3.1-14.7 7.3-25.2 21.4-53l11.4-22.5-.4-7c-.3-3.9-1.2-8.5-2.2-10.2-1.8-3.6-6.3-6.4-9.8-6.1-1.3.1-28.8.5-61.3.9zM172.7 405.7c-2.3 2.2 2.5 12.3 13.4 28.3 8.9 13.2 13.6 17.8 28.4 27.9 31.2 21.3 61.2 32.9 93.4 36.1 13.9 1.4 42.2-.8 56.7-4.5 42.1-10.7 84.9-43 100.4-75.7 3.9-8.3 4-10.8.1-10.8-4.6 0-7.6 1.5-20.7 10-13.4 8.8-37.5 20.9-52.8 26.5-14.2 5.2-37.9 11-53.1 13-7.8 1.1-19.7 1.7-30 1.7-15.7 0-17.8-.2-28.5-3-21.2-5.6-43.2-14.4-61.1-24.2-10.5-5.8-11.8-6.7-23.9-15.5-12.4-9.1-19.8-12.4-22.3-9.8z"/></svg>